_________________________  Visit us at _________________________
  
http://p2pdl.com  ____________________________  http://p2pdl.com


The Details 2011 BRRip 720p x264 AAC - PRiSTiNE [P2PDL]

Genre: Comedy | Drama
Plot: When a family of raccoons discover worms 
living underneath the sod in Jeff and Nealy's 
backyard, this pest problem begins a darkly 
comic and wild chain reaction of domestic 
tension, infidelity and murder.
Director: Jacob Aaron Estes
Stars: Tobey Maguire, Elizabeth Banks, Ray Liotta
Rated: Rated R for language, sexual content, some drug use and brief violence

Info: 
http://www.imdb.com/title/tt1433207/

General
Complete name                  : The Details 2011 BRRip 720p x264 AAC - PRiSTiNE.mp4
Format                         : MPEG-4
Format profile                 : Base Media
Codec ID                       : isom
File size                      : 652 MiB
Duration                       : 1h 41mn
Overall bit rate mode          : Variable
Overall bit rate               : 898 Kbps

Video
Format                         : AVC
Format/Info                    : Advanced Video Codec
Format profile                 : High 10@L4.1
Bit rate                       : 815 Kbps
Width                          : 1 280 pixels
Height                         : 720 pixels
Display aspect ratio           : 16:9
Frame rate mode                : Constant
Frame rate                     : 23.976 fps
Bit depth                      : 10 bits
Scan type                      : Progressive
Stream size                    : 591 MiB (91%)
Writing library                : x264 core 130 r2273 b3065e6

Audio
Format                         : AAC
Bit rate mode                  : Variable
Bit rate                       : 79.9 Kbps
Channel(s)                     : 2 channels
Channel positions              : Front: L R
Sampling rate                  : 48.0 KHz / 24.0 KHz
Stream size                    : 58.0 MiB (9%)
Language                       : English

Subtitle                       : Yes (English)
Source                         : 720p.BluRay.X264-Japhson (Thanks)

Screenshots:
 
http://www.ultraimg.com/images/uDyBA.jpg 
http://www.ultraimg.com/images/oD3Wv.jpg 
http://www.ultraimg.com/images/YFi6p.jpg 
http://www.ultraimg.com/images/mPLuI.jpg 
http://www.ultraimg.com/images/TQqsW.jpg 
http://www.ultraimg.com/images/Q50z9.jpg 
http://www.ultraimg.com/images/venIZ.jpg

----------------------------------------------------------------------------------------------------


Encoded using revolutionary 10bit encoding, which enables us to provide you more crispier 
and sharper images at small sizes, just make sure you follow our instructions without a fault.
Recommend to you to use latest version of VLC player. Install K-Lite Codec Pack or shark007 codecs
in case of any kind of problem in playback (For non-VLC Media Player users). Alternatively, install
Core AVC codecs, the fastest decoder that there is coupled with Community Center Codec Pack and play
on Windows Media Player Classic. Check sample to be sure.
Enjoy!

Encoder Notes:Looking For Early Access To Anything You Can Provide DVDScr, R5, DVDR, BluRay, Direct
Audio, Music Releases and Seedboxes. We require dedicated servers, so as to do more 
and fast releases of movies.
If You Got anything to offer please contact us at "prg@hush.com".

Face book Fan Page:   
http://www.fb.me/p2pdl